<?xml version="1.0" encoding="UTF-8"?>
<svg version="1.1" xmlns="http://www.w3.org/2000/svg" width="1254" height="1254">
<path d="M0 0 C413.82 0 827.64 0 1254 0 C1254 413.82 1254 827.64 1254 1254 C840.18 1254 426.36 1254 0 1254 C0 840.18 0 426.36 0 0 Z " fill="#FCFBFA" transform="translate(0,0)"/>
<path d="M0 0 C19.47 0 38.94 0 59 0 C59 56.76 59 113.52 59 172 C133.58 172 208.16 172 285 172 C285 115.24 285 58.48 285 0 C304.14 0 323.28 0 343 0 C343 63.03 343 126.06 343 191 C343.66 191 344.32 191 345 191 C345.33692871 190.15646973 345.33692871 190.15646973 345.68066406 189.29589844 C347.39169618 186.31837326 349.52584772 184.53161393 352.109375 182.265625 C357.19762632 177.72094432 362.08083657 173.00991052 366.890625 168.171875 C367.57153198 167.48766479 368.25243896 166.80345459 368.95397949 166.09851074 C371.05465074 163.98431137 373.15275936 161.8676022 375.25 159.75 C378.04386494 156.92928327 380.84121862 154.11209106 383.640625 151.296875 C384.261651 150.66755066 384.882677 150.03822632 385.52252197 149.38983154 C389.24067641 145.65125247 393.09018362 142.1415909 397.07977295 138.69537354 C399.97906178 136.13558377 402.69401077 133.41142486 405.40625 130.65625 C405.97525024 130.08346313 406.54425049 129.51067627 407.13049316 128.92053223 C408.92282982 127.11614749 410.71184316 125.3085264 412.5 123.5 C425.78150696 110.06719842 425.78150696 110.06719842 431.97460938 104.80273438 C436.69566153 100.60067927 441.06239584 95.9979016 445.5 91.5 C456.53934333 80.31065589 456.53934333 80.31065589 460.90625 76.59375 C466.94768775 71.43219344 472.41873734 65.64751847 478 60 C480.26778857 57.70529026 482.53909708 55.41414624 484.8125 53.125 C485.56599731 52.35905518 485.56599731 52.35905518 486.3347168 51.57763672 C489.07736557 48.81665293 491.89152807 46.1991179 494.84082031 43.65917969 C499.35055866 39.75338348 503.54055237 35.56801271 507.734375 31.328125 C508.53482239 30.52389099 509.33526978 29.71965698 510.15997314 28.89105225 C512.69244197 26.34646604 515.22162045 23.79864906 517.75 21.25 C521.09607352 17.8773251 524.44544965 14.50798087 527.796875 11.140625 C528.56046326 10.3687384 529.32405151 9.59685181 530.11077881 8.80157471 C531.18274506 7.72465363 531.18274506 7.72465363 532.27636719 6.62597656 C532.90065613 5.99645081 533.52494507 5.36692505 534.16815186 4.71832275 C534.77266174 4.15127625 535.37717163 3.58422974 536 3 C536.58354248 2.43723862 537.16708496 1.87447723 537.76831055 1.29466248 C540.92684537 -0.53768768 543.88257466 -0.39553876 547.43066406 -0.34057617 C548.17251953 -0.34101425 548.914375 -0.34145233 549.67871094 -0.34190369 C552.12461903 -0.33981787 554.56983702 -0.31649727 557.015625 -0.29296875 C558.71384303 -0.28737204 560.41206592 -0.2831023 562.11029053 -0.28010559 C566.57545392 -0.26866266 571.04032359 -0.2392003 575.50537109 -0.20599365 C580.06343615 -0.17528084 584.62154875 -0.16159767 589.1796875 -0.14648438 C598.11992057 -0.11433001 607.05993584 -0.06314036 616 0 C609.88315074 7.33097705 609.88315074 7.33097705 606.21875 10.34375 C601.3773468 14.46722649 596.95833266 18.97010502 592.5 23.5 C587.48072491 28.59984131 582.43954375 33.55183483 577.00976562 38.21289062 C573.1669081 41.63000884 569.60391313 45.33458665 566 49 C557.57721773 57.56651576 557.57721773 57.56651576 553.09375 61.40625 C547.95320459 65.82406526 543.25573727 70.67603121 538.5 75.5 C536.70042547 77.32539339 534.89838231 79.14835671 533.09375 80.96875 C532.30677734 81.76732422 531.51980469 82.56589844 530.70898438 83.38867188 C528.56711133 85.45333248 526.39989493 87.40728929 524.15039062 89.34960938 C520.08590014 92.87731182 516.27937551 96.60862352 512.5 100.4375 C511.82001953 101.12126709 511.14003906 101.80503418 510.43945312 102.50952148 C508.29049074 104.67057055 506.14482721 106.83484726 504 109 C501.16966163 111.85716017 498.33587327 114.71083454 495.5 117.5625 C494.86642578 118.20437256 494.23285156 118.84624512 493.58007812 119.50756836 C489.79968026 123.30829628 485.89179805 126.88707589 481.8347168 130.39013672 C479.42243953 132.50677761 477.15843659 134.74586164 474.90625 137.03125 C474.02066406 137.92457031 473.13507813 138.81789063 472.22265625 139.73828125 C471.32417969 140.64964844 470.42570312 141.56101562 469.5 142.5 C467.70042547 144.32539339 465.89838231 146.14835671 464.09375 147.96875 C462.91329102 149.16661133 462.91329102 149.16661133 461.70898438 150.38867188 C459.56269079 152.45759366 457.39047633 154.41637777 455.13671875 156.36328125 C451.15473016 159.819316 447.42052262 163.46675907 443.71875 167.21875 C443.06096558 167.88032104 442.40318115 168.54189209 441.72546387 169.22351074 C439.64782726 171.31322735 437.57349373 173.40617315 435.5 175.5 C432.7634185 178.263417 430.02337737 181.02333722 427.28125 183.78125 C426.66954956 184.40124878 426.05784912 185.02124756 425.4276123 185.66003418 C421.72284946 189.3853916 417.88466933 192.88107934 413.9095459 196.31530762 C411.09012335 198.80273653 408.44824445 201.44571398 405.8125 204.125 C405.2656958 204.67559082 404.7188916 205.22618164 404.15551758 205.79345703 C402.43450493 207.52650817 400.71682168 209.26279773 399 211 C396.73221143 213.29470974 394.46090292 215.58585376 392.1875 217.875 C391.43400269 218.64094482 391.43400269 218.64094482 390.6652832 219.42236328 C387.90644842 222.19964127 385.0740789 224.83218889 382.10888672 227.38891602 C377.89507939 231.0380644 373.97705317 234.92934609 370.0703125 238.90234375 C368.60169035 240.38359031 367.13293668 241.86470648 365.6640625 243.34570312 C363.37766588 245.65708093 361.09291719 247.97004646 358.81054688 250.28540039 C356.58893953 252.53702307 354.36130595 254.78253932 352.1328125 257.02734375 C351.10318893 258.07715675 351.10318893 258.07715675 350.05276489 259.1481781 C349.10069656 260.10531456 349.10069656 260.10531456 348.12939453 261.08178711 C347.57172394 261.64691513 347.01405334 262.21204315 346.43948364 262.79429626 C345 264 345 264 343 264 C343 307.89 343 351.78 343 397 C323.86 397 304.72 397 285 397 C285 336.28 285 275.56 285 213 C210.42 213 135.84 213 59 213 C59 273.72 59 334.44 59 397 C39.53 397 20.06 397 0 397 C0 265.99 0 134.98 0 0 Z " fill="#141414" transform="translate(318,395)"/>
<path d="M0 0 C3.07582547 1.41521845 5.03556023 3.93183714 7.21899414 6.43969727 C7.70827393 6.98762939 8.19755371 7.53556152 8.70166016 8.10009766 C10.11266799 9.68448118 11.51187541 11.2783853 12.90649414 12.87719727 C13.82301758 13.92520508 13.82301758 13.92520508 14.75805664 14.99438477 C15.83240998 16.22750954 16.90528312 17.46192523 17.97680664 18.69750977 C21.02480522 22.14039075 24.15799148 25.50385341 27.28198242 28.87768555 C33.35452602 35.43618449 39.42821872 41.99624805 45.28149414 48.75219727 C48.92981129 52.9538137 52.72028438 57.01988701 56.50366211 61.09936523 C59.18035561 63.99066366 61.82953049 66.89600402 64.40649414 69.87719727 C67.96467261 73.99079872 71.66491534 77.96815001 75.36132812 81.95703125 C79.15301061 86.05162237 82.89744877 90.18561305 86.62133789 94.34204102 C89.23922568 97.24633021 91.88404544 100.12488698 94.53149414 103.00219727 C98.08910375 106.8708016 101.58939169 110.7805406 105.03149414 114.75219727 C107.9256875 118.03228307 110.89868306 121.23987783 113.86181641 124.45751953 C116.3938953 127.21193155 118.89684683 129.98462225 121.34399414 132.81469727 C124.96996398 136.99985281 128.74293263 141.04479815 132.50830078 145.10400391 C135.14408407 147.95068281 137.75107778 150.8107488 140.28149414 153.75219727 C143.67863221 157.68221974 147.23031776 161.46200388 150.78149414 165.25219727 C156.22767013 171.06532182 161.61664652 176.92082885 166.90649414 182.87719727 C167.53040039 183.57200195 168.15430664 184.26680664 168.79711914 184.98266602 C169.39008789 185.64911133 169.98305664 186.31555664 170.59399414 187.00219727 C171.34229492 187.84137695 171.34229492 187.84137695 172.10571289 188.69750977 C173.81053678 190.76104932 175.41694626 192.86962267 177.01904297 195.01342773 C177.55966873 195.73625946 178.10029449 196.45909119 178.65730286 197.2038269 C179.06953598 197.75603912 179.4817691 198.30825134 179.90649414 198.87719727 C170.61382751 199.2033818 161.32316521 199.45120443 152.02599812 199.60256767 C147.70731544 199.67526696 143.39258129 199.77361203 139.07617188 199.93334961 C108.84254611 201.02348492 108.84254611 201.02348492 101.82739258 195.88745117 C98.9309531 193.11813595 96.7814677 190.12378114 94.87677002 186.60879517 C93.40630787 183.98454239 91.47617637 181.7856006 89.53149414 179.50219727 C88.83282227 178.62821289 88.13415039 177.75422852 87.41430664 176.85375977 C83.60317117 172.33026253 79.50580371 168.08632726 75.43237305 163.79980469 C70.98466463 159.09525994 66.85619155 154.26094683 62.82055664 149.19750977 C60.55917658 146.45616332 58.11420126 143.99774563 55.56665039 141.52563477 C51.50545431 137.49310595 47.89009601 133.03356389 44.18383789 128.67797852 C38.79217746 122.34998349 33.34535262 116.09914621 27.70043945 109.99536133 C25.22854079 107.32240773 22.79026384 104.62900742 20.40649414 101.87719727 C17.04326776 97.99902714 13.57313743 94.22191916 10.09838867 90.4440918 C6.39630096 86.41754861 2.72643801 82.36337362 -0.92553711 78.29125977 C-2.35584833 76.6985889 -3.79065932 75.10994611 -5.23022461 73.52563477 C-9.65023931 68.65330258 -13.95985009 63.70260007 -18.21850586 58.68969727 C-21.82831428 54.44478817 -25.47491468 50.3434698 -29.49194336 46.47485352 C-32.53611828 43.43810341 -35.30144229 40.1445057 -38.09350586 36.87719727 C-36.67811243 33.65324557 -34.97935658 31.52052935 -32.46850586 29.06469727 C-31.83686523 28.43950195 -31.20522461 27.81430664 -30.55444336 27.17016602 C-28.53909464 25.29237284 -26.48978783 23.49957094 -24.39819336 21.70922852 C-21.28906186 19.00656438 -18.37876416 16.18259873 -15.51538086 13.22094727 C-14.36295898 12.02985352 -14.36295898 12.02985352 -13.18725586 10.81469727 C-11.60162025 9.16563623 -10.02368021 7.50914658 -8.45288086 5.84594727 C-7.68975586 5.06219727 -6.92663086 4.27844727 -6.14038086 3.47094727 C-5.11702637 2.39876953 -5.11702637 2.39876953 -4.07299805 1.30493164 C-2.09350586 -0.12280273 -2.09350586 -0.12280273 0 0 Z " fill="#141414" transform="translate(765.093505859375,593.122802734375)"/>
<path d="M0 0 C28 0 28 0 38 5 C41.20434363 8.43322531 41.90888327 10.28245571 42.5 14.9375 C42.27434213 19.45065732 40.55017399 22.32474925 38 26 C37.01 26.495 37.01 26.495 36 27 C36.94875 27.7425 37.8975 28.485 38.875 29.25 C42.14598532 31.80990155 43.71213698 34.19100818 44.37109375 38.33203125 C44.51814061 43.82466414 44.00057072 47.32533692 40.421875 51.59765625 C30.48277469 61.40023046 11.18175535 57 0 57 C0 38.19 0 19.38 0 0 Z " fill="#202120" transform="translate(784,852)"/>
<path d="M0 0 C2.97 0 5.94 0 9 0 C9 7.92 9 15.84 9 24 C18.57 24 28.14 24 38 24 C38 16.08 38 8.16 38 0 C41.3 0 44.6 0 48 0 C48 18.81 48 37.62 48 57 C44.7 57 41.4 57 38 57 C38 48.75 38 40.5 38 32 C28.43 32 18.86 32 9 32 C9 40.25 9 48.5 9 57 C6.03 57 3.06 57 0 57 C0 38.19 0 19.38 0 0 Z " fill="#202020" transform="translate(321,852)"/>
<path d="M0 0 C3.3 0 6.6 0 10 0 C10.33 8.58 10.66 17.16 11 26 C13.60648437 23.1846875 13.60648437 23.1846875 16.265625 20.3125 C17.98606778 18.49824035 19.71698414 16.69459739 21.44921875 14.89160156 C22.63957387 13.64121226 23.81890263 12.3802225 24.98632812 11.10839844 C34.72450866 0.52269707 34.72450866 0.52269707 40.53710938 -0.8125 C43.48270607 -0.8125 46.12388055 -0.61378199 49 0 C43.89551178 6.18134869 38.31705058 11.79822878 32.625 17.4375 C31.69816406 18.35982422 30.77132813 19.28214844 29.81640625 20.23242188 C27.54654154 22.49058625 25.27436462 24.74636942 23 27 C24.59731198 30.99978269 27.40990726 33.63279482 30.4453125 36.5703125 C30.97518768 37.09261444 31.50506287 37.61491638 32.05099487 38.15304565 C33.73758962 39.81527313 35.43046594 41.47086925 37.125 43.125 C39.36244099 45.30942405 41.59330926 47.50025407 43.8203125 49.6953125 C44.33900909 50.19741241 44.85770569 50.69951233 45.39212036 51.21682739 C46.63292464 52.44033933 47.82193369 53.71596866 49 55 C49 55.66 49 56.32 49 57 C47.15123352 57.21857338 45.29476306 57.37238438 43.4375 57.5 C42.40496094 57.5928125 41.37242187 57.685625 40.30859375 57.78125 C35.9574069 56.75381509 34.68706778 54.80344282 31.95678711 51.39257812 C28.32620376 46.95343691 24.13370195 43.03127089 20.0625 39 C17.071875 36.03 14.08125 33.06 11 30 C10.67 38.91 10.34 47.82 10 57 C6.7 57 3.4 57 0 57 C0 38.19 0 19.38 0 0 Z " fill="#2E2E2E" transform="translate(440,852)"/>
<path d="M0 0 C3.03559148 2.21345212 4.68853087 3.60892735 5.51953125 7.3203125 C5.78228983 9.55551217 5.94609909 11.75086209 6 14 C3.36 14 0.72 14 -2 14 C-2.268125 13.236875 -2.53625 12.47375 -2.8125 11.6875 C-4.011859 8.97316121 -4.65982727 7.76147492 -7 6 C-9.86509458 5.52356309 -9.86509458 5.52356309 -13 5.625 C-14.051875 5.61726562 -15.10375 5.60953125 -16.1875 5.6015625 C-18.98651889 5.77979367 -18.98651889 5.77979367 -20.84765625 7.3046875 C-22.80833111 10.18920576 -22.4195892 12.64328639 -22 16 C-18.81982037 19.23569398 -14.90669804 20.00543234 -10.625 21 C-3.95314895 22.56828371 2.70548856 24.3078434 7.07421875 30 C9.15277022 34.4903728 8.88409371 39.22717528 8 44 C5.44384721 49.39098389 0.77988555 52.22856404 -4.640625 54.34765625 C-8.52279287 55.4210371 -12.01774339 55.44800387 -16 55 C-16.680625 54.92910156 -17.36125 54.85820313 -18.0625 54.78515625 C-24.02837347 53.74811965 -27.99563625 50.41629591 -32 46 C-33.95959829 42.570703 -34.22391316 39.91848029 -34 36 C-31.03 36 -28.06 36 -25 36 C-24.38125 37.6396875 -24.38125 37.6396875 -23.75 39.3125 C-22.31800391 42.55748196 -21.35830739 44.49759932 -18 46 C-12.24997432 46.77910653 -7.99900697 46.12437936 -3 43 C-1.62228238 41.83524938 -1.62228238 41.83524938 -1.6875 38.625 C-1.61385232 35.06951008 -1.61385232 35.06951008 -3.53515625 33.38671875 C-6.78970491 31.55571277 -10.13241023 30.92580921 -13.75 30.1875 C-21.62241585 28.41252151 -27.38968597 25.91547104 -32 19 C-32.83462226 14.01442456 -33.07866703 9.12362571 -30.75 4.5390625 C-22.65678188 -5.53999155 -10.76259683 -6.12702142 0 0 Z " fill="#1A1A1A" transform="translate(931,855)"/>
<path d="M0 0 C3.96 0 7.92 0 12 0 C14.71684547 6.36518081 17.28924118 12.71261593 19.5625 19.25 C21.13058054 23.71902954 22.82460438 27.90843841 25.03515625 32.08984375 C34 49.83805668 34 49.83805668 34 57 C30.7 57 27.4 57 24 57 C23.68546875 56.10539063 23.3709375 55.21078125 23.046875 54.2890625 C19.96251933 45.57482872 16.78475614 36.93838626 13 28.5 C11.54315449 25.24522213 10.11916983 21.98025702 8.75 18.6875 C8.24726562 17.48673828 8.24726562 17.48673828 7.734375 16.26171875 C7 14 7 14 7 10 C6.34 10 5.68 10 5 10 C4.65195312 11.26714844 4.30390625 12.53429687 3.9453125 13.83984375 C1.67363017 21.40900387 -1.27143418 28.72756275 -4.15283203 36.08032227 C-5.13425328 38.58612583 -6.10853368 41.09462451 -7.08203125 43.60351562 C-7.7027096 45.19547452 -8.32378844 46.78727734 -8.9453125 48.37890625 C-9.23697296 49.12983047 -9.52863342 49.8807547 -9.82913208 50.6544342 C-11.88448929 55.88448929 -11.88448929 55.88448929 -13 57 C-14.51928038 57.07179964 -16.04167482 57.08392007 -17.5625 57.0625 C-18.38878906 57.05347656 -19.21507812 57.04445313 -20.06640625 57.03515625 C-20.70449219 57.02355469 -21.34257813 57.01195312 -22 57 C-21.39572747 51.98947184 -19.80541001 47.66973687 -17.83203125 43.06640625 C-17.51473557 42.31141342 -17.19743988 41.55642059 -16.87052917 40.77854919 C-15.85722264 38.37059953 -14.83523905 35.96645648 -13.8125 33.5625 C-12.48340672 30.4189251 -11.1577107 27.27392202 -9.83203125 24.12890625 C-9.50888947 23.36413971 -9.18574768 22.59937317 -8.85281372 21.81143188 C-5.80421365 14.57931211 -2.88214679 7.29994695 0 0 Z " fill="#1C1C1C" transform="translate(682,852)"/>
<path d="M0 0 C2.97 0 5.94 0 9 0 C9 16.17 9 32.34 9 49 C19.23 49 29.46 49 40 49 C40 51.64 40 54.28 40 57 C26.8 57 13.6 57 0 57 C0 38.19 0 19.38 0 0 Z " fill="#1E1E1E" transform="translate(558,852)"/>
<path d="M0 0 C2.64 0 5.28 0 8 0 C8 18.15 8 36.3 8 55 C5.36 55 2.72 55 0 55 C0 36.85 0 18.7 0 0 Z " fill="#101010" transform="translate(441,853)"/>
<path d="M0 0 C3.20924709 -0.10837983 6.4148027 -0.18749268 9.625 -0.25 C10.98044922 -0.30027344 10.98044922 -0.30027344 12.36328125 -0.3515625 C18.19583483 -0.43670927 21.65847537 -0.05776485 26 4 C26.99893039 6.74974388 26.68997946 9.17630253 26 12 C23.79259319 14.96858157 22.51402627 15.82865791 19 17 C17.51876453 17.0806622 16.03417796 17.10761193 14.55078125 17.09765625 C13.70322266 17.09443359 12.85566406 17.09121094 11.98242188 17.08789062 C10.66081055 17.07532227 10.66081055 17.07532227 9.3125 17.0625 C8.41982422 17.05798828 7.52714844 17.05347656 6.60742188 17.04882812 C4.40491927 17.03705004 2.20245115 17.01911481 0 17 C0 11.39 0 5.78 0 0 Z " fill="#ECECEC" transform="translate(793,884)"/>
<path d="M0 0 C3.08427046 -0.10800947 6.16475747 -0.18731002 9.25 -0.25 C10.12269531 -0.28351562 10.99539063 -0.31703125 11.89453125 -0.3515625 C18.36489569 -0.45034669 18.36489569 -0.45034669 21.578125 1.828125 C23.52288248 4.79868862 23.58049554 6.51702673 23 10 C21.1329009 12.30275556 19.64352259 13.67823871 17 15 C14.11629667 15.07194869 11.25760336 15.09291708 8.375 15.0625 C7.57320312 15.05798828 6.77140625 15.05347656 5.9453125 15.04882812 C3.96350994 15.03703168 1.98174567 15.01909605 0 15 C0 10.05 0 5.1 0 0 Z " fill="#F5F4F4" transform="translate(794,861)"/>
<path d="M0 0 C0.66 0.99 1.32 1.98 2 3 C1.0925 3.721875 0.185 4.44375 -0.75 5.1875 C-2.74948764 6.84753974 -4.25008753 8.31677754 -5.875 10.375 C-9.87113288 15.31139944 -14.90189823 19.24470182 -20 23 C-20 20 -20 20 -18.1640625 17.82348633 C-17.32617188 17.00130615 -16.48828125 16.17912598 -15.625 15.33203125 C-14.72265625 14.43935547 -13.8203125 13.54667969 -12.890625 12.62695312 C-11.9272427 11.68863843 -10.96369892 10.7504895 -10 9.8125 C-9.03577654 8.86332231 -8.07222608 7.91346044 -7.109375 6.96289062 C-4.74613254 4.63509681 -2.37618518 2.31456867 0 0 Z " fill="#212121" transform="translate(705,543)"/>
<path d="M0 0 C0.99 0.33 1.98 0.66 3 1 C3 7.27 3 13.54 3 20 C5.29629994 21.14814997 7.07698086 21.30769809 9.625 21.5625 C10.44226563 21.64628906 11.25953125 21.73007812 12.1015625 21.81640625 C13.04128906 21.90728516 13.04128906 21.90728516 14 22 C14 22.33 14 22.66 14 23 C9.38 23 4.76 23 0 23 C0 15.41 0 7.82 0 0 Z " fill="#F2F2F2" transform="translate(330,853)"/>
<path d="M0 0 C9.57 0 19.14 0 29 0 C29 0.33 29 0.66 29 1 C20.42 1 11.84 1 3 1 C3 4.63 3 8.26 3 12 C2.34 12 1.68 12 1 12 C0.67 12.99 0.34 13.98 0 15 C0 10.05 0 5.1 0 0 Z " fill="#CDCDCD" transform="translate(330,884)"/>
<path d="M0 0 C0 3.91968982 -1.57568887 6.08093149 -4 9 C-5.717816 10.61418905 -7.49137839 12.11795438 -9.31640625 13.609375 C-11.34303129 15.28333907 -13.17911373 17.10627828 -15 19 C-15.66 18.34 -16.32 17.68 -17 17 C-11.39 11.39 -5.78 5.78 0 0 Z " fill="#252525" transform="translate(743,506)"/>
<path d="M0 0 C0.66 0.66 1.32 1.32 2 2 C-2.95 6.95 -7.9 11.9 -13 17 C-13.66 16.34 -14.32 15.68 -15 15 C-10.05 10.05 -5.1 5.1 0 0 Z " fill="#1E1E1E" transform="translate(768,482)"/>
<path d="M0 0 C0.99 0.33 1.98 0.66 3 1 C2.360625 1.268125 1.72125 1.53625 1.0625 1.8125 C-1.33131686 2.88667752 -1.33131686 2.88667752 -2 6 C-3.48035688 7.28726685 -4.96488598 8.57151986 -6.5 9.79296875 C-8.11655494 11.0937903 -9.57342089 12.4941665 -11 14 C-11 10 -11 10 -9.1015625 7.67578125 C-8.28429687 6.89589844 -7.46703125 6.11601563 -6.625 5.3125 C-5.81289063 4.52488281 -5.00078125 3.73726562 -4.1640625 2.92578125 C-2 1 -2 1 0 0 Z " fill="#292A2A" transform="translate(739,617)"/>
<path d="M0 0 C1.485 0.99 1.485 0.99 3 2 C2.67 2.66 2.34 3.32 2 4 C3.98 4 5.96 4 8 4 C8.33 3.34 8.66 2.68 9 2 C9.66 1.67 10.32 1.34 11 1 C11.33 2.98 11.66 4.96 12 7 C8.7 7 5.4 7 2 7 C1.34 4.69 0.68 2.38 0 0 Z " fill="#383838" transform="translate(704,902)"/>
<path d="M0 0 C0.66 0.99 1.32 1.98 2 3 C1.67 3.33 1.34 3.66 1 4 C2.65 4.33 4.3 4.66 6 5 C6.33 4.34 6.66 3.68 7 3 C7.5625 4.9375 7.5625 4.9375 8 7 C7 8 7 8 4.93359375 8.09765625 C4.10988281 8.08605469 3.28617188 8.07445312 2.4375 8.0625 C1.61121094 8.05347656 0.78492188 8.04445313 -0.06640625 8.03515625 C-0.70449219 8.02355469 -1.34257813 8.01195312 -2 8 C-1.125 2.25 -1.125 2.25 0 0 Z " fill="#2F2F2F" transform="translate(662,901)"/>
<path d="M0 0 C0.969375 0.185625 1.93875 0.37125 2.9375 0.5625 C2.9375 0.8925 2.9375 1.2225 2.9375 1.5625 C2.04804688 1.79710937 1.15859375 2.03171875 0.2421875 2.2734375 C-3.44895458 3.71324469 -5.23773386 5.32411167 -7.9375 8.1875 C-8.71867187 9.00476563 -9.49984375 9.82203125 -10.3046875 10.6640625 C-10.88476562 11.29054688 -11.46484375 11.91703125 -12.0625 12.5625 C-12.3925 11.5725 -12.7225 10.5825 -13.0625 9.5625 C-4.62074616 -0.08521868 -4.62074616 -0.08521868 0 0 Z " fill="#191919" transform="translate(480.0625,852.4375)"/>
<path d="M0 0 C1.32 1.32 2.64 2.64 4 4 C3.01 5.485 3.01 5.485 2 7 C1.6373883 8.92744369 1.6373883 8.92744369 1.5859375 11.01171875 C1.54726563 11.76904297 1.50859375 12.52636719 1.46875 13.30664062 C1.4378125 14.09232422 1.406875 14.87800781 1.375 15.6875 C1.33632813 16.48478516 1.29765625 17.28207031 1.2578125 18.10351562 C1.16367506 20.06863475 1.08075368 22.0342854 1 24 C0.67 24 0.34 24 0 24 C0 16.08 0 8.16 0 0 Z " fill="#EEEEEE" transform="translate(450,881)"/>
<path d="M0 0 C1.66666667 1.66666667 3.33333333 3.33333333 5 5 C5.928125 5.886875 6.85625 6.77375 7.8125 7.6875 C10 10 10 10 10 12 C7.35107221 11.61993645 6.19467845 11.19914355 4.296875 9.2578125 C3.78640625 8.55398438 3.2759375 7.85015625 2.75 7.125 C2.22921875 6.42632813 1.7084375 5.72765625 1.171875 5.0078125 C0 3 0 3 0 0 Z " fill="#2C2C2B" transform="translate(922,766)"/>
<path d="M0 0 C3.96 0 7.92 0 12 0 C10.35 1.65 8.7 3.3 7 5 C6.67 3.68 6.34 2.36 6 1 C4.02 1 2.04 1 0 1 C0 0.67 0 0.34 0 0 Z " fill="#444444" transform="translate(477,852)"/>
<path d="M0 0 C0.66 0.66 1.32 1.32 2 2 C-0.31 4.31 -2.62 6.62 -5 9 C-5.66 8.34 -6.32 7.68 -7 7 C-4.69 4.69 -2.38 2.38 0 0 Z " fill="#1D1C1D" transform="translate(761,595)"/>
<path d="M0 0 C-1.44253657 3.36591866 -3.33264727 5.51047079 -6 8 C-6.99 7.67 -7.98 7.34 -9 7 C-7.88121617 5.82737096 -6.75476949 4.66204862 -5.625 3.5 C-4.68527344 2.52546875 -4.68527344 2.52546875 -3.7265625 1.53125 C-2 0 -2 0 0 0 Z " fill="#303030" transform="translate(744,578)"/>
<path d="M0 0 C-1.44253657 3.36591866 -3.33264727 5.51047079 -6 8 C-6.99 7.67 -7.98 7.34 -9 7 C-7.88121617 5.82737096 -6.75476949 4.66204862 -5.625 3.5 C-4.68527344 2.52546875 -4.68527344 2.52546875 -3.7265625 1.53125 C-2 0 -2 0 0 0 Z " fill="#323333" transform="translate(812,512)"/>
<path d="M0 0 C0.66 0 1.32 0 2 0 C1.75 3.3125 1.75 3.3125 1 7 C-0.32 7.99 -1.64 8.98 -3 10 C-2.01 6.7 -1.02 3.4 0 0 Z " fill="#CECDCE" transform="translate(687,862)"/>
<path d="M0 0 C2.31 1.98 4.62 3.96 7 6 C6.34 6.66 5.68 7.32 5 8 C0 2.25 0 2.25 0 0 Z " fill="#1C1B1B" transform="translate(882,723)"/>
<path d="M0 0 C2.5 2.3125 2.5 2.3125 5 5 C5 5.99 5 6.98 5 8 C2.5 6.25 2.5 6.25 0 4 C0 2.68 0 1.36 0 0 Z " fill="#262525" transform="translate(912,755)"/>
</svg>
